<?xml version="1.0" encoding="UTF-8" standalone="no"?>
<!DOCTYPE svg PUBLIC "-//W3C//DTD SVG 1.1//EN"
 "http://www.w3.org/Graphics/SVG/1.1/DTD/svg11.dtd">
<!-- Generated by graphviz version 2.43.0 (0)
 -->
<!-- Title: G Pages: 1 -->
<svg width="270pt" height="459pt"
 viewBox="0.00 0.00 269.52 459.39" xmlns="http://www.w3.org/2000/svg" xmlns:xlink="http://www.w3.org/1999/xlink">
<g id="graph0" class="graph" transform="scale(1 1) rotate(0) translate(4 455.39)">
<title>G</title>
<!-- start -->
<g id="node1" class="node">
<title>start</title>
<ellipse fill="#005500" stroke="#005500" cx="61.5" cy="-418.24" rx="33.29" ry="33.29"/>
<text text-anchor="middle" x="61.5" y="-414.54" font-family="Times,serif" font-size="14.00" fill="white">start</text>
</g>
<!-- queue -->
<g id="node2" class="node">
<title>queue</title>
<path fill="#885500" stroke="#885500" d="M91,-193.57C91,-196.21 70.61,-198.35 45.5,-198.35 20.39,-198.35 0,-196.21 0,-193.57 0,-193.57 0,-150.62 0,-150.62 0,-147.98 20.39,-145.84 45.5,-145.84 70.61,-145.84 91,-147.98 91,-150.62 91,-150.62 91,-193.57 91,-193.57"/>
<path fill="none" stroke="#885500" d="M91,-193.57C91,-190.94 70.61,-188.8 45.5,-188.8 20.39,-188.8 0,-190.94 0,-193.57"/>
<text text-anchor="middle" x="45.5" y="-175.89" font-family="Times,serif" font-size="14.00" fill="white">event loop</text>
<text text-anchor="middle" x="45.5" y="-160.89" font-family="Times,serif" font-size="14.00" fill="white">tasks list</text>
</g>
<!-- start&#45;&gt;queue -->
<g id="edge4" class="edge">
<title>start&#45;&gt;queue</title>
<path fill="none" stroke="white" d="M59.39,-385.07C56.39,-339.33 50.92,-255.79 47.81,-208.39"/>
<polygon fill="white" stroke="white" points="51.3,-208.04 47.15,-198.29 44.31,-208.49 51.3,-208.04"/>
<text text-anchor="start" x="55.5" y="-304.89" font-family="Times,serif" font-size="14.00" fill="white">#3</text>
<text text-anchor="start" x="55.5" y="-289.89" font-family="Times,serif" font-size="14.00" fill="white">start the loop</text>
</g>
<!-- first_task -->
<g id="node3" class="node">
<title>first_task</title>
<polygon fill="#555555" stroke="#555555" points="244,-319.09 161,-319.09 161,-283.09 244,-283.09 244,-319.09"/>
<text text-anchor="middle" x="202.5" y="-297.39" font-family="Times,serif" font-size="14.00" fill="white">first_task</text>
</g>
<!-- start&#45;&gt;first_task -->
<g id="edge2" class="edge">
<title>start&#45;&gt;first_task</title>
<path fill="none" stroke="white" d="M86.71,-396.66C111.15,-376.69 148.2,-346.44 173.77,-325.56"/>
<polygon fill="white" stroke="white" points="176.11,-328.17 181.64,-319.13 171.68,-322.74 176.11,-328.17"/>
<text text-anchor="start" x="156.5" y="-355.89" font-family="Times,serif" font-size="14.00" fill="white">#1</text>
<text text-anchor="start" x="156.5" y="-340.89" font-family="Times,serif" font-size="14.00" fill="white">add first_task</text>
</g>
<!-- queue&#45;&gt;queue -->
<g id="edge5" class="edge">
<title>queue&#45;&gt;queue</title>
<path fill="none" stroke="white" d="M91.16,-184.9C101.47,-183.75 109,-179.48 109,-172.09 109,-167.36 105.91,-163.91 100.98,-161.74"/>
<polygon fill="white" stroke="white" points="101.71,-158.32 91.16,-159.29 100.02,-165.11 101.71,-158.32"/>
<text text-anchor="start" x="109" y="-190.89" font-family="Times,serif" font-size="14.00" fill="white">#4</text>
<text text-anchor="start" x="109" y="-175.89" font-family="Times,serif" font-size="14.00" fill="white">check the next task</text>
<text text-anchor="start" x="109" y="-160.89" font-family="Times,serif" font-size="14.00" fill="white">to run remove it</text>
<text text-anchor="start" x="109" y="-145.89" font-family="Times,serif" font-size="14.00" fill="white">from the list</text>
</g>
<!-- first_task_code -->
<g id="node4" class="node">
<title>first_task_code</title>
<polygon fill="#000055" stroke="#000055" points="245.5,-48.55 105.5,-48.55 105.5,-12.55 245.5,-12.55 245.5,-48.55"/>
<text text-anchor="middle" x="175.5" y="-26.85" font-family="Times,serif" font-size="14.00" fill="white">code instructions</text>
</g>
<!-- queue&#45;&gt;first_task_code -->
<g id="edge6" class="edge">
<title>queue&#45;&gt;first_task_code</title>
<path fill="none" stroke="white" d="M91.2,-154.61C106.82,-147.2 123.38,-137.14 135.5,-124.09 152.65,-105.64 163.16,-78.69 169.07,-58.62"/>
<polygon fill="white" stroke="white" points="172.49,-59.41 171.76,-48.84 165.74,-57.56 172.49,-59.41"/>
<text text-anchor="start" x="161.5" y="-112.89" font-family="Times,serif" font-size="14.00" fill="white">#5</text>
<text text-anchor="start" x="161.5" y="-97.89" font-family="Times,serif" font-size="14.00" fill="white">run the</text>
<text text-anchor="start" x="161.5" y="-82.89" font-family="Times,serif" font-size="14.00" fill="white">instruction</text>
</g>
<!-- stop -->
<g id="node5" class="node">
<title>stop</title>
<ellipse fill="#550000" stroke="#550000" cx="45.5" cy="-30.55" rx="30.59" ry="30.59"/>
<text text-anchor="middle" x="45.5" y="-26.85" font-family="Times,serif" font-size="14.00" fill="white">stop</text>
</g>
<!-- queue&#45;&gt;stop -->
<g id="edge7" class="edge">
<title>queue&#45;&gt;stop</title>
<path fill="none" stroke="white" d="M45.5,-145.82C45.5,-125.09 45.5,-95.37 45.5,-71.43"/>
<polygon fill="white" stroke="white" points="49,-71.23 45.5,-61.23 42,-71.23 49,-71.23"/>
<text text-anchor="start" x="45.5" y="-112.89" font-family="Times,serif" font-size="14.00" fill="white">#6</text>
<text text-anchor="start" x="45.5" y="-97.89" font-family="Times,serif" font-size="14.00" fill="white">no more</text>
<text text-anchor="middle" x="88.5" y="-82.89" font-family="Times,serif" font-size="14.00" fill="white">tasks to run</text>
</g>
<!-- first_task&#45;&gt;queue -->
<g id="edge3" class="edge">
<title>first_task&#45;&gt;queue</title>
<path fill="none" stroke="white" d="M181.33,-282.97C156.43,-262.83 114.63,-229.01 83.96,-204.2"/>
<polygon fill="white" stroke="white" points="86,-201.35 76.02,-197.78 81.59,-206.79 86,-201.35"/>
<text text-anchor="start" x="155.5" y="-253.89" font-family="Times,serif" font-size="14.00" fill="white">#2</text>
<text text-anchor="start" x="155.5" y="-238.89" font-family="Times,serif" font-size="14.00" fill="white">added to</text>
<text text-anchor="start" x="155.5" y="-223.89" font-family="Times,serif" font-size="14.00" fill="white">the list</text>
</g>
<!-- first_task&#45;&gt;first_task_code -->
<g id="edge1" class="edge">
<title>first_task&#45;&gt;first_task_code</title>
<path fill="none" stroke="white" stroke-dasharray="5,2" d="M212.31,-283.03C215.56,-277.33 219.2,-270.95 222.5,-265.09 238.22,-237.19 249.47,-233.1 257.5,-202.09 264.19,-176.28 260.21,-168.62 257.5,-142.09 254.6,-113.65 260.3,-102.92 244.5,-79.09 238.03,-69.34 228.82,-61.02 219.22,-54.2"/>
<polygon fill="white" stroke="white" points="221.02,-51.19 210.75,-48.59 217.15,-57.03 221.02,-51.19"/>
</g>
</g>
</svg>
