<?xml version="1.0" encoding="UTF-8" standalone="no"?>
<!DOCTYPE svg PUBLIC "-//W3C//DTD SVG 1.1//EN"
 "http://www.w3.org/Graphics/SVG/1.1/DTD/svg11.dtd">
<!-- Generated by graphviz version 2.43.0 (0)
 -->
<!-- Title: G Pages: 1 -->
<svg width="532pt" height="1033pt"
 viewBox="0.00 0.00 532.00 1033.39" xmlns="http://www.w3.org/2000/svg" xmlns:xlink="http://www.w3.org/1999/xlink">
<g id="graph0" class="graph" transform="scale(1 1) rotate(0) translate(4 1029.39)">
<title>G</title>
<!-- start -->
<g id="node1" class="node">
<title>start</title>
<ellipse fill="#005500" stroke="#005500" cx="153" cy="-992.24" rx="33.29" ry="33.29"/>
<text text-anchor="middle" x="153" y="-988.54" font-family="Times,serif" font-size="14.00" fill="white">start</text>
</g>
<!-- queue -->
<g id="node2" class="node">
<title>queue</title>
<path fill="#885500" stroke="#885500" d="M261.5,-653.57C261.5,-656.21 241.11,-658.35 216,-658.35 190.89,-658.35 170.5,-656.21 170.5,-653.57 170.5,-653.57 170.5,-610.62 170.5,-610.62 170.5,-607.98 190.89,-605.84 216,-605.84 241.11,-605.84 261.5,-607.98 261.5,-610.62 261.5,-610.62 261.5,-653.57 261.5,-653.57"/>
<path fill="none" stroke="#885500" d="M261.5,-653.57C261.5,-650.94 241.11,-648.8 216,-648.8 190.89,-648.8 170.5,-650.94 170.5,-653.57"/>
<text text-anchor="middle" x="216" y="-635.89" font-family="Times,serif" font-size="14.00" fill="white">event loop</text>
<text text-anchor="middle" x="216" y="-620.89" font-family="Times,serif" font-size="14.00" fill="white">tasks list</text>
</g>
<!-- start&#45;&gt;queue -->
<g id="edge5" class="edge">
<title>start&#45;&gt;queue</title>
<path fill="none" stroke="white" d="M179.35,-971.76C196.62,-956.58 216,-933.81 216,-908.09 216,-908.09 216,-908.09 216,-758.59 216,-728.28 216,-693.85 216,-668.73"/>
<polygon fill="white" stroke="white" points="219.5,-668.57 216,-658.57 212.5,-668.57 219.5,-668.57"/>
<text text-anchor="start" x="216" y="-840.89" font-family="Times,serif" font-size="14.00" fill="white">#3</text>
<text text-anchor="start" x="216" y="-825.89" font-family="Times,serif" font-size="14.00" fill="white">start the loop</text>
</g>
<!-- first_task -->
<g id="node3" class="node">
<title>first_task</title>
<polygon fill="#555555" stroke="#555555" points="131.5,-855.09 48.5,-855.09 48.5,-819.09 131.5,-819.09 131.5,-855.09"/>
<text text-anchor="middle" x="90" y="-833.39" font-family="Times,serif" font-size="14.00" fill="white">first_task</text>
</g>
<!-- start&#45;&gt;first_task -->
<g id="edge3" class="edge">
<title>start&#45;&gt;first_task</title>
<path fill="none" stroke="white" d="M131.4,-966.62C121.54,-954.09 110.61,-938.15 104,-922.09 96.56,-904.04 93.07,-882.26 91.44,-865.4"/>
<polygon fill="white" stroke="white" points="94.9,-864.81 90.61,-855.12 87.92,-865.37 94.9,-864.81"/>
<text text-anchor="start" x="104" y="-910.89" font-family="Times,serif" font-size="14.00" fill="white">#1</text>
<text text-anchor="start" x="104" y="-895.89" font-family="Times,serif" font-size="14.00" fill="white">add first_task</text>
</g>
<!-- queue&#45;&gt;queue -->
<g id="edge6" class="edge">
<title>queue&#45;&gt;queue</title>
<path fill="none" stroke="white" d="M261.66,-647.83C271.97,-646.41 279.5,-641.16 279.5,-632.09 279.5,-626.28 276.41,-622.04 271.48,-619.37"/>
<polygon fill="white" stroke="white" points="272.25,-615.95 261.66,-616.36 270.2,-622.64 272.25,-615.95"/>
<text text-anchor="start" x="279.5" y="-688.89" font-family="Times,serif" font-size="14.00" fill="white">#4</text>
<text text-anchor="start" x="279.5" y="-673.89" font-family="Times,serif" font-size="14.00" fill="white">check the next task</text>
<text text-anchor="start" x="279.5" y="-658.89" font-family="Times,serif" font-size="14.00" fill="white">to run remove it</text>
<text text-anchor="start" x="279.5" y="-643.89" font-family="Times,serif" font-size="14.00" fill="white">from the list</text>
<text text-anchor="start" x="279.5" y="-612.89" font-family="Times,serif" font-size="14.00" fill="white">#8</text>
<text text-anchor="start" x="279.5" y="-597.89" font-family="Times,serif" font-size="14.00" fill="white">check the next task</text>
<text text-anchor="start" x="279.5" y="-582.89" font-family="Times,serif" font-size="14.00" fill="white">to run remove it</text>
<text text-anchor="start" x="279.5" y="-567.89" font-family="Times,serif" font-size="14.00" fill="white">from the list</text>
</g>
<!-- first_task_code -->
<g id="node4" class="node">
<title>first_task_code</title>
<polygon fill="#000055" stroke="#000055" points="140,-425.59 0,-425.59 0,-389.59 140,-389.59 140,-425.59"/>
<text text-anchor="middle" x="70" y="-403.89" font-family="Times,serif" font-size="14.00" fill="white">code instructions</text>
</g>
<!-- queue&#45;&gt;first_task_code -->
<g id="edge7" class="edge">
<title>queue&#45;&gt;first_task_code</title>
<path fill="none" stroke="red" d="M162.98,-602.15C135.42,-584.24 103.86,-558.64 86,-527.09 70.07,-498.96 67.6,-461.19 68.11,-435.93"/>
<polygon fill="red" stroke="red" points="161.44,-605.31 171.76,-607.69 165.17,-599.39 161.44,-605.31"/>
<polygon fill="red" stroke="red" points="71.61,-436.06 68.48,-425.94 64.61,-435.8 71.61,-436.06"/>
<text text-anchor="start" x="86" y="-515.89" font-family="Times,serif" font-size="14.00" fill="white">#5</text>
<text text-anchor="start" x="86" y="-500.89" font-family="Times,serif" font-size="14.00" fill="white">run the</text>
<text text-anchor="start" x="86" y="-485.89" font-family="Times,serif" font-size="14.00" fill="white">first_task</text>
<text text-anchor="start" x="86" y="-470.89" font-family="Times,serif" font-size="14.00" fill="white">code instruction</text>
</g>
<!-- second_task_code -->
<g id="node6" class="node">
<title>second_task_code</title>
<polygon fill="#000055" stroke="#000055" points="365,-134.09 225,-134.09 225,-98.09 365,-98.09 365,-134.09"/>
<text text-anchor="middle" x="295" y="-112.39" font-family="Times,serif" font-size="14.00" fill="white">code instructions</text>
</g>
<!-- queue&#45;&gt;second_task_code -->
<g id="edge10" class="edge">
<title>queue&#45;&gt;second_task_code</title>
<path fill="none" stroke="red" d="M253.83,-599.33C278.83,-574.63 307,-537.95 307,-498.09 307,-498.09 307,-498.09 307,-188.09 307,-173.4 304.47,-157.22 301.73,-144.03"/>
<polygon fill="red" stroke="red" points="251.37,-596.84 246.55,-606.28 256.2,-601.9 251.37,-596.84"/>
<polygon fill="red" stroke="red" points="305.13,-143.17 299.54,-134.17 298.29,-144.7 305.13,-143.17"/>
<text text-anchor="start" x="307" y="-355.89" font-family="Times,serif" font-size="14.00" fill="white">#8</text>
<text text-anchor="start" x="307" y="-340.89" font-family="Times,serif" font-size="14.00" fill="white">run the</text>
<text text-anchor="start" x="307" y="-325.89" font-family="Times,serif" font-size="14.00" fill="white">second_task</text>
<text text-anchor="start" x="307" y="-310.89" font-family="Times,serif" font-size="14.00" fill="white">code instruction</text>
</g>
<!-- stop -->
<g id="node7" class="node">
<title>stop</title>
<ellipse fill="#550000" stroke="#550000" cx="438" cy="-30.55" rx="30.59" ry="30.59"/>
<text text-anchor="middle" x="438" y="-26.85" font-family="Times,serif" font-size="14.00" fill="white">stop</text>
</g>
<!-- queue&#45;&gt;stop -->
<g id="edge11" class="edge">
<title>queue&#45;&gt;stop</title>
<path fill="none" stroke="white" d="M261.73,-624.53C326.72,-612.32 438,-579.53 438,-498.09 438,-498.09 438,-498.09 438,-115.09 438,-100.88 438,-85.3 438,-71.49"/>
<polygon fill="white" stroke="white" points="441.5,-71.32 438,-61.32 434.5,-71.32 441.5,-71.32"/>
<text text-anchor="start" x="438" y="-277.89" font-family="Times,serif" font-size="14.00" fill="white">#9</text>
<text text-anchor="start" x="438" y="-262.89" font-family="Times,serif" font-size="14.00" fill="white">no more</text>
<text text-anchor="middle" x="481" y="-247.89" font-family="Times,serif" font-size="14.00" fill="white">tasks to run</text>
</g>
<!-- first_task&#45;&gt;queue -->
<g id="edge4" class="edge">
<title>first_task&#45;&gt;queue</title>
<path fill="none" stroke="white" d="M97.43,-818.79C106.35,-798.63 122.2,-764.59 139,-737.09 154.13,-712.33 173.6,-686.07 189.18,-666.13"/>
<polygon fill="white" stroke="white" points="191.93,-668.3 195.37,-658.27 186.43,-663.96 191.93,-668.3"/>
<text text-anchor="start" x="139" y="-770.89" font-family="Times,serif" font-size="14.00" fill="white">#2</text>
<text text-anchor="start" x="139" y="-755.89" font-family="Times,serif" font-size="14.00" fill="white">added to</text>
<text text-anchor="start" x="139" y="-740.89" font-family="Times,serif" font-size="14.00" fill="white">the list</text>
</g>
<!-- first_task&#45;&gt;first_task_code -->
<g id="edge1" class="edge">
<title>first_task&#45;&gt;first_task_code</title>
<path fill="none" stroke="white" stroke-dasharray="5,2" d="M63.23,-819.03C45.69,-805.56 26,-784.99 26,-760.59 26,-760.59 26,-760.59 26,-496.09 26,-473.36 38,-450.51 49.47,-433.86"/>
<polygon fill="white" stroke="white" points="52.31,-435.9 55.35,-425.75 46.64,-431.79 52.31,-435.9"/>
</g>
<!-- second_task -->
<g id="node5" class="node">
<title>second_task</title>
<polygon fill="#555555" stroke="#555555" points="267.5,-207.09 164.5,-207.09 164.5,-171.09 267.5,-171.09 267.5,-207.09"/>
<text text-anchor="middle" x="216" y="-185.39" font-family="Times,serif" font-size="14.00" fill="white">second_task</text>
</g>
<!-- first_task_code&#45;&gt;second_task -->
<g id="edge8" class="edge">
<title>first_task_code&#45;&gt;second_task</title>
<path fill="none" stroke="white" d="M66.15,-389.42C60.02,-357.4 51.79,-287.89 84,-244.09 100.72,-221.37 128.7,-208.17 154.61,-200.53"/>
<polygon fill="white" stroke="white" points="155.69,-203.87 164.42,-197.86 153.85,-197.11 155.69,-203.87"/>
<text text-anchor="start" x="84" y="-270.39" font-family="Times,serif" font-size="14.00" fill="white">#6</text>
<text text-anchor="start" x="84" y="-255.39" font-family="Times,serif" font-size="14.00" fill="white">add second_task</text>
</g>
<!-- second_task&#45;&gt;queue -->
<g id="edge9" class="edge">
<title>second_task&#45;&gt;queue</title>
<path fill="none" stroke="white" d="M216,-207.19C216,-222.49 216,-245.54 216,-265.59 216,-498.09 216,-498.09 216,-498.09 216,-531.12 216,-568.75 216,-595.54"/>
<polygon fill="white" stroke="white" points="212.5,-595.6 216,-605.6 219.5,-595.6 212.5,-595.6"/>
<text text-anchor="start" x="216" y="-418.89" font-family="Times,serif" font-size="14.00" fill="white">#7</text>
<text text-anchor="start" x="216" y="-403.89" font-family="Times,serif" font-size="14.00" fill="white">added to</text>
<text text-anchor="start" x="216" y="-388.89" font-family="Times,serif" font-size="14.00" fill="white">the list</text>
</g>
<!-- second_task&#45;&gt;second_task_code -->
<g id="edge2" class="edge">
<title>second_task&#45;&gt;second_task_code</title>
<path fill="none" stroke="white" stroke-dasharray="5,2" d="M235.12,-170.91C245.12,-161.92 257.51,-150.79 268.42,-140.98"/>
<polygon fill="white" stroke="white" points="270.95,-143.41 276.05,-134.12 266.28,-138.2 270.95,-143.41"/>
</g>
</g>
</svg>
